<?xml version="1.0" encoding="UTF-8" standalone="no"?>
<!-- Created with Inkscape (http://www.inkscape.org/) -->

<svg
   xmlns:dc="http://purl.org/dc/elements/1.1/"
   xmlns:cc="http://creativecommons.org/ns#"
   xmlns:rdf="http://www.w3.org/1999/02/22-rdf-syntax-ns#"
   xmlns:svg="http://www.w3.org/2000/svg"
   xmlns="http://www.w3.org/2000/svg"
   xmlns:sodipodi="http://sodipodi.sourceforge.net/DTD/sodipodi-0.dtd"
   xmlns:inkscape="http://www.inkscape.org/namespaces/inkscape"
   width="600"
   height="600"
   id="svg2157"
   sodipodi:version="0.32"
   inkscape:version="0.92.3 (3ce5693, 2018-03-11)"
   version="1.0"
   sodipodi:docname="icon.svg"
   inkscape:output_extension="org.inkscape.output.svg.inkscape">
  <defs
     id="defs2159" />
  <sodipodi:namedview
     id="base"
     pagecolor="#ffffff"
     bordercolor="#666666"
     borderopacity="1.0"
     gridtolerance="10000"
     guidetolerance="10"
     objecttolerance="10"
     inkscape:pageopacity="0.0"
     inkscape:pageshadow="2"
     inkscape:zoom="0.35"
     inkscape:cx="-154.92857"
     inkscape:cy="331.75407"
     inkscape:document-units="px"
     inkscape:current-layer="layer2"
     width="600px"
     height="600px"
     inkscape:window-width="851"
     inkscape:window-height="488"
     inkscape:window-x="287"
     inkscape:window-y="273"
     showgrid="false"
     inkscape:window-maximized="0" />
  <metadata
     id="metadata2162">
    <rdf:RDF>
      <cc:Work
         rdf:about="">
        <dc:format>image/svg+xml</dc:format>
        <dc:type
           rdf:resource="http://purl.org/dc/dcmitype/StillImage" />
      </cc:Work>
    </rdf:RDF>
  </metadata>
  <g
     inkscape:groupmode="layer"
     id="layer2"
     inkscape:label="Layer 2">
    <g
       transform="matrix(7.3428571,0,0,7.4800065,130.60857,39.47093)"
       id="g3884">
      <path
         inkscape:connector-curvature="0"
         d="m 31.707,33.07 c -0.87,0.027 -1.74,0.042 -2.606,0.042 -0.869,0 -1.742,-0.014 -2.614,-0.042 C 19.146,32.869 13.296,31.832 9.084,30.353 7.104,29.685 5.409,28.899 4.1,28 v 7.111 0.5 0.5 1.289 c 2.846,2.971 12.394,5.711 25,5.711 12.606,0 22.154,-2.74 25,-5.711 v -1.289 -0.5 -0.5 V 28 c -1.318,0.905 -3.028,1.697 -5.025,2.367 -4.21,1.472 -10.048,2.503 -17.368,2.703 z"
         id="path3876" />
      <path
         inkscape:connector-curvature="0"
         d="M 4.1,14.889 V 22 22.5 23 24.289 c 2.638,2.754 11.033,5.31 22.286,5.668 0.115,0.004 0.233,0.005 0.349,0.008 0.326,0.009 0.651,0.018 0.982,0.023 0.457,0.008 0.918,0.012 1.383,0.012 0.465,0 0.926,-0.004 1.383,-0.011 0.33,-0.005 0.656,-0.014 0.982,-0.023 0.116,-0.003 0.234,-0.005 0.349,-0.008 C 43.067,29.599 51.462,27.043 54.1,24.29 V 23 22.5 22 14.889 C 49.233,18.232 38.944,20 29.1,20 19.256,20 8.968,18.232 4.1,14.889 Z"
         id="path3878" />
      <path
         inkscape:connector-curvature="0"
         d="M 53.965,8.542 C 52.843,4.241 44.215,0 29.1,0 14.023,0 5.404,4.22 4.247,8.51 4.162,8.657 4.1,8.818 4.1,9 v 0.5 1.806 C 6.937,14.267 16.417,17 29.1,17 c 12.683,0 22.164,-2.733 25,-5.694 V 9.5 9 c 0,-0.168 -0.056,-0.319 -0.135,-0.458 z"
         id="path3880" />
      <path
         inkscape:connector-curvature="0"
         d="m 4.1,41 v 8.201 c 0,0.162 0.043,0.315 0.117,0.451 1.181,4.895 11.747,8.549 24.883,8.549 13.106,0 23.655,-3.639 24.875,-8.516 0.08,-0.144 0.125,-0.309 0.125,-0.484 v -8.199 c -4.135,2.911 -12.655,5.199 -25,5.199 -12.346,0 -20.866,-2.29 -25,-5.201 z"
         id="path3882" />
    </g>
    <g
       transform="translate(442.32857,459.47093)"
       id="g3886" />
    <g
       transform="translate(442.32857,459.47093)"
       id="g3888" />
    <g
       transform="translate(442.32857,459.47093)"
       id="g3890" />
    <g
       transform="translate(442.32857,459.47093)"
       id="g3892" />
    <g
       transform="translate(442.32857,459.47093)"
       id="g3894" />
    <g
       transform="translate(442.32857,459.47093)"
       id="g3896" />
    <g
       transform="translate(442.32857,459.47093)"
       id="g3898" />
    <g
       transform="translate(442.32857,459.47093)"
       id="g3900" />
    <g
       transform="translate(442.32857,459.47093)"
       id="g3902" />
    <g
       transform="translate(442.32857,459.47093)"
       id="g3904" />
    <g
       transform="translate(442.32857,459.47093)"
       id="g3906" />
    <g
       transform="translate(442.32857,459.47093)"
       id="g3908" />
    <g
       transform="translate(442.32857,459.47093)"
       id="g3910" />
    <g
       transform="translate(442.32857,459.47093)"
       id="g3912" />
    <g
       transform="translate(442.32857,459.47093)"
       id="g3914" />
  </g>
  <g
     inkscape:label="Layer 1"
     inkscape:groupmode="layer"
     id="layer1">
    <path
       id="check"
       d="M 25.257828,388.61333 L 150.45625,554.27704 C 187.80366,592.27704 230.15106,592.27704 244.49846,554.27704 C 304.95799,413.59515 467.18948,152.15947 574.3879,75.207333 C 603.02112,44.393193 556.09708,2.2137629 520.0424,22.567643 C 442.55598,59.297633 219.55415,375.7357 190.73563,465.21994 L 95.906641,334.51412 C 61.357035,284.54719 -7.1925678,340.58026 25.257828,388.61333 z "
       style="fill:#00b44b;fill-opacity:1;fill-rule:evenodd;stroke:none;stroke-width:0pt;stroke-linecap:butt;stroke-linejoin:miter;stroke-miterlimit:4;stroke-dasharray:none;stroke-opacity:1"
       sodipodi:nodetypes="cccccccc" />
  </g>
</svg>
